<?xml version="1.0" standalone="no"?>
<!DOCTYPE svg PUBLIC "-//W3C//DTD SVG 20010904//EN"
 "http://www.w3.org/TR/2001/REC-SVG-20010904/DTD/svg10.dtd">
<svg version="1.0" xmlns="http://www.w3.org/2000/svg"
 width="512.000000pt" height="512.000000pt" viewBox="0 0 512.000000 512.000000"
 preserveAspectRatio="xMidYMid meet">

<g transform="translate(0.000000,512.000000) scale(0.100000,-0.100000)"
fill="#000000" stroke="none">
<path d="M1033 5002 l-153 -107 0 -762 0 -762 -212 -3 c-206 -3 -215 -4 -270
-30 -67 -31 -135 -91 -177 -156 -63 -99 -61 -48 -61 -1349 l0 -1183 -81 0 -81
0 4 -167 c3 -165 4 -169 35 -235 56 -119 165 -204 292 -228 74 -14 4388 -14
4462 0 115 22 230 104 280 201 38 76 49 136 49 287 l0 142 -80 0 -80 0 0 1183
c0 1301 2 1250 -61 1349 -42 65 -110 125 -177 156 -55 26 -64 27 -269 30
l-213 3 0 762 0 762 -155 108 -154 108 -68 -49 c-37 -26 -89 -62 -114 -80
l-46 -31 -114 79 c-108 76 -114 79 -136 65 -12 -9 -64 -44 -114 -80 l-92 -64
-46 31 c-25 18 -77 54 -114 80 l-68 49 -115 -81 -115 -80 -114 81 -114 80
-115 -81 -115 -80 -103 73 c-57 40 -108 76 -114 80 -6 4 -60 -28 -120 -70 -60
-42 -113 -76 -119 -76 -5 0 -57 33 -115 73 -57 40 -109 73 -115 73 -5 0 -59
-34 -119 -76 l-108 -76 -47 31 c-25 18 -76 54 -114 80 -37 26 -68 48 -70 48
-1 -1 -71 -49 -154 -108z m278 -173 c59 -42 106 -68 115 -65 8 3 59 37 114 76
54 38 102 70 105 70 4 0 55 -34 115 -75 60 -41 112 -75 116 -75 4 0 52 32 108
71 55 39 106 74 113 76 6 3 57 -27 112 -66 55 -39 107 -74 115 -77 9 -3 56 23
115 65 55 39 106 74 114 76 7 3 62 -29 121 -70 60 -42 115 -74 122 -71 8 3 59
37 115 76 56 39 107 69 113 67 7 -3 58 -37 115 -77 56 -40 107 -70 115 -67 7
3 58 37 113 76 56 39 104 71 108 71 4 0 52 -32 108 -71 55 -39 106 -73 113
-76 8 -3 59 27 115 67 57 40 108 74 115 77 6 2 43 -18 80 -44 l69 -49 3 -1922
2 -1922 -1520 0 -1520 0 0 1920 0 1919 72 51 c40 28 78 48 85 45 8 -2 59 -37
114 -76z m-431 -1779 l0 -160 -160 0 -160 0 0 -1040 0 -1040 2000 0 2000 0 0
1040 0 1040 -160 0 -160 0 0 160 0 160 188 0 c182 0 190 -1 239 -25 55 -28 99
-77 119 -134 10 -29 13 -282 14 -1218 l0 -1183 -960 0 -960 0 0 -45 c0 -55
-15 -90 -47 -104 -33 -15 -513 -15 -546 0 -32 14 -47 49 -47 104 l0 45 -960 0
-960 0 0 1183 c1 961 3 1189 14 1220 21 58 61 103 118 131 50 25 57 26 240 26
l188 0 0 -160z m0 -1200 l0 -880 -80 0 -80 0 0 880 0 880 80 0 80 0 0 -880z
m3520 0 l0 -880 -80 0 -80 0 0 880 0 880 80 0 80 0 0 -880z m-2295 -1381 c11
-33 65 -88 109 -112 40 -21 51 -22 346 -22 295 0 306 1 346 22 44 24 98 79
109 112 l6 21 970 0 969 0 0 -62 c-1 -103 -48 -185 -135 -231 l-40 -22 -2225
0 -2225 0 -40 22 c-87 46 -134 128 -135 231 l0 62 969 0 970 0 6 -21z"/>
<path d="M1280 4010 l0 -480 80 0 80 0 0 480 0 480 -80 0 -80 0 0 -480z"/>
<path d="M1600 4170 l0 -320 80 0 80 0 0 320 0 320 -80 0 -80 0 0 -320z"/>
<path d="M1920 4330 l0 -160 80 0 80 0 0 160 0 160 -80 0 -80 0 0 -160z"/>
<path d="M2624 3962 c-34 -125 -60 -228 -59 -230 5 -5 147 -44 150 -40 5 5
116 420 118 442 2 15 -11 22 -63 37 -36 10 -69 18 -75 19 -5 0 -37 -102 -71
-228z"/>
<path d="M3147 3652 l-167 -167 58 -58 57 -57 168 168 167 167 -58 58 -57 57
-168 -168z"/>
<path d="M2110 3322 l-155 -407 -280 -283 -280 -282 282 -282 283 -283 58 58
57 57 155 -156 c92 -93 171 -164 195 -175 53 -24 147 -25 200 0 121 55 175
205 116 321 -14 26 -86 109 -174 198 l-151 152 48 49 c47 48 57 52 460 207
226 87 413 159 416 161 4 4 -1061 1073 -1070 1073 -3 0 -75 -183 -160 -408z
m942 -603 c-4 -3 -146 -59 -317 -124 l-310 -118 -63 -61 -62 -61 -165 165
c-91 91 -165 169 -165 173 0 5 27 36 59 70 l60 61 117 305 c64 168 119 310
122 315 2 4 168 -155 368 -355 200 -200 360 -366 356 -370z m-1032 -314 l165
-165 -113 -112 -112 -113 -167 167 -168 168 110 110 c60 60 112 110 115 110 3
0 79 -74 170 -165z m435 -435 c135 -135 149 -153 149 -184 0 -62 -53 -96 -111
-70 -15 6 -91 75 -168 153 l-140 141 55 55 c30 30 57 55 60 55 3 0 72 -67 155
-150z"/>
<path d="M3522 3168 l-223 -61 6 -26 c3 -14 12 -49 20 -78 l15 -52 33 10 c17
5 120 32 227 61 107 28 196 52 198 53 7 5 -35 149 -43 151 -6 1 -110 -25 -233
-58z"/>
<path d="M1340 2065 l-55 -55 168 -168 167 -167 55 55 55 55 -168 168 -167
167 -55 -55z"/>
<path d="M3680 1610 l0 -480 80 0 80 0 0 480 0 480 -80 0 -80 0 0 -480z"/>
<path d="M3360 1450 l0 -320 80 0 80 0 0 320 0 320 -80 0 -80 0 0 -320z"/>
<path d="M3040 1290 l0 -160 80 0 80 0 0 160 0 160 -80 0 -80 0 0 -160z"/>
</g>
</svg>
