<?xml version="1.0" standalone="no"?>
<!DOCTYPE svg PUBLIC "-//W3C//DTD SVG 20010904//EN"
 "http://www.w3.org/TR/2001/REC-SVG-20010904/DTD/svg10.dtd">
<svg version="1.0" xmlns="http://www.w3.org/2000/svg"
 width="512.000000pt" height="512.000000pt" viewBox="0 0 512.000000 512.000000"
 preserveAspectRatio="xMidYMid meet">

<g transform="translate(0.000000,512.000000) scale(0.100000,-0.100000)"
fill="#000000" stroke="none">
<path d="M755 5107 c-61 -24 -104 -58 -133 -105 -16 -26 -141 -258 -278 -517
-249 -470 -249 -470 -252 -540 -5 -84 19 -146 73 -194 18 -15 119 -74 223
-130 215 -115 250 -125 345 -97 55 16 120 65 144 110 10 18 13 17 54 -12 60
-41 128 -114 179 -192 126 -191 218 -272 427 -378 76 -39 299 -171 496 -294
l359 -223 22 -70 c13 -38 35 -94 50 -122 l26 -53 -527 0 c-505 0 -529 -1 -560
-20 -21 -13 -35 -31 -42 -57 -15 -54 -15 -1868 0 -1948 19 -106 76 -181 174
-233 l50 -27 1610 0 1610 0 51 27 c67 35 138 115 161 181 17 49 18 110 18
1017 0 531 -3 978 -8 993 -4 15 -22 36 -40 47 -31 19 -53 20 -614 20 l-582 0
25 44 c95 171 115 411 50 603 -30 87 -46 118 -111 218 -30 44 -140 233 -245
420 -106 187 -210 365 -230 396 -58 84 -177 190 -267 236 -158 82 -278 110
-629 148 -421 45 -530 71 -734 175 -242 123 -240 122 -240 156 0 17 -7 54 -16
84 -26 86 -72 124 -292 241 -174 92 -198 102 -255 105 -35 2 -75 -2 -92 -9z
m263 -279 c114 -60 177 -99 184 -113 9 -19 -26 -91 -242 -496 -138 -261 -260
-483 -271 -494 -24 -25 -30 -23 -238 89 -147 80 -161 90 -161 115 0 26 474
934 508 974 8 9 22 17 30 17 9 0 94 -41 190 -92z m485 -447 c281 -146 371
-170 831 -221 270 -31 382 -49 466 -77 130 -43 246 -126 312 -221 33 -48 248
-425 245 -428 -1 -2 -31 4 -67 13 -47 11 -98 14 -182 10 l-118 -4 -27 46
c-148 254 -327 353 -586 322 -130 -15 -193 -37 -243 -86 -70 -67 -77 -150 -21
-233 14 -20 114 -129 222 -242 109 -113 210 -227 226 -255 60 -103 86 -246 57
-311 -11 -22 -17 -25 -46 -20 -20 3 -184 99 -400 234 -202 126 -431 261 -510
301 -205 105 -271 161 -391 339 -73 106 -150 187 -234 244 l-58 39 40 72 c21
40 96 180 166 312 147 277 135 255 141 255 2 0 82 -40 177 -89z m1102 -781
c48 -23 136 -115 172 -179 l23 -39 -48 -28 c-26 -15 -67 -43 -91 -62 l-44 -36
-163 169 c-90 94 -164 173 -164 177 0 12 124 27 198 23 48 -2 88 -11 117 -25z
m670 -355 c104 -27 184 -72 261 -149 114 -114 168 -242 168 -401 0 -136 -38
-245 -123 -353 l-41 -52 -399 0 -399 0 -40 53 c-38 49 -77 117 -70 120 113 55
156 100 183 189 31 106 10 280 -49 396 l-25 49 22 20 c64 58 169 112 256 132
59 14 193 12 256 -4z m1555 -1350 l0 -195 -917 -1 c-684 0 -927 -3 -953 -12
-23 -8 -41 -24 -54 -48 -23 -42 -17 -79 19 -115 l24 -24 941 0 940 0 0 -615 0
-615 -29 -32 -29 -33 -1564 -2 c-1228 -2 -1568 0 -1587 10 -13 6 -34 25 -45
40 -21 28 -21 35 -21 635 l0 607 291 3 292 2 25 25 c29 30 36 58 25 102 -17
65 -29 68 -350 71 l-288 3 0 188 c0 103 3 191 7 194 3 4 741 7 1640 7 l1633 0
0 -195z"/>
<path d="M2509 1686 c-47 -15 -75 -72 -59 -120 34 -105 190 -80 190 30 0 72
-60 113 -131 90z"/>
<path d="M2187 1189 c-43 -25 -47 -53 -47 -348 l0 -281 29 -32 29 -33 996 0
996 0 27 28 28 27 3 282 c2 200 -1 290 -9 310 -25 62 39 58 -1044 58 -654 -1
-996 -4 -1008 -11z m1863 -344 l0 -155 -855 0 -855 0 0 155 0 155 855 0 855 0
0 -155z"/>
</g>
</svg>
