<?xml version="1.0" standalone="no"?>
<!DOCTYPE svg PUBLIC "-//W3C//DTD SVG 20010904//EN"
 "http://www.w3.org/TR/2001/REC-SVG-20010904/DTD/svg10.dtd">
<svg version="1.0" xmlns="http://www.w3.org/2000/svg"
 width="512.000000pt" height="512.000000pt" viewBox="0 0 512.000000 512.000000"
 preserveAspectRatio="xMidYMid meet">

<g transform="translate(0.000000,512.000000) scale(0.100000,-0.100000)"
fill="#000000" stroke="none">
<path d="M1215 4785 l-25 -24 0 -459 0 -459 26 -24 c23 -21 36 -24 125 -27
l99 -4 0 -844 0 -844 -72 0 c-171 0 -381 -52 -526 -131 -41 -21 -75 -39 -78
-39 -2 0 -4 103 -4 229 l0 229 -31 26 -31 27 -325 -3 -325 -3 -24 -28 -24 -28
0 -1003 0 -1003 25 -27 24 -26 331 0 331 0 24 25 25 24 0 229 0 230 108 -54
c59 -30 153 -66 207 -81 l100 -28 839 -3 c737 -2 849 -1 924 13 48 9 388 97
757 196 368 99 789 212 935 251 282 75 340 99 397 161 117 131 120 328 5 458
-32 37 -125 91 -174 103 l-28 6 0 970 0 970 90 0 c111 0 145 14 160 68 8 25
10 177 8 470 l-3 434 -28 24 -28 24 -1895 0 -1895 0 -24 -25z m3703 -482 l-3
-338 -1777 -3 -1778 -2 0 340 0 340 1780 0 1780 0 -2 -337z m-258 -1492 l0
-979 -22 -6 c-13 -3 -232 -62 -488 -131 l-465 -125 -15 22 c-92 135 -114 147
-451 238 -151 40 -431 116 -624 168 l-350 95 -317 5 -318 4 0 844 0 844 1525
0 1525 0 0 -979z m-4070 -1431 l0 -890 -210 0 -210 0 0 890 0 890 210 0 210 0
0 -890z m2234 382 c329 -90 611 -169 627 -177 34 -18 68 -64 80 -110 26 -95
-60 -205 -161 -205 -17 0 -199 45 -404 100 -204 55 -382 100 -394 100 -11 0
-33 -11 -48 -24 -35 -29 -39 -86 -8 -116 13 -13 137 -52 394 -122 334 -90 384
-102 460 -102 73 -1 93 3 141 27 90 44 167 140 184 230 7 33 11 37 59 51 28 8
265 72 526 141 510 136 540 141 598 98 15 -11 37 -37 50 -59 44 -76 12 -188
-66 -228 -15 -7 -207 -62 -427 -121 -220 -59 -641 -171 -937 -250 -295 -79
-565 -149 -600 -155 -43 -7 -323 -10 -888 -8 l-825 3 -75 23 c-92 28 -238 99
-302 147 l-48 35 0 339 0 339 68 45 c84 56 149 88 232 116 139 47 185 50 690
47 l475 -2 599 -162z"/>
<path d="M2655 3595 c-32 -31 -32 -75 -1 -112 l24 -28 429 -3 c235 -2 443 0
461 3 69 13 98 97 49 143 -23 22 -25 22 -481 22 l-457 0 -24 -25z"/>
</g>
</svg>
